PathFileType	4	(X/Y/Z)	S1_nor_med_right & left.trc
DataRate	CameraRate	NumFrames	NumMarkers	Units	OrigDataRate	OrigDataStartFrame	OrigNumFrames
250.00	250.00	10	18	mm	250.00	4199	16793
Frame#	Time	c7	r_should	l_should	clavicle	r_upa	r_elb_l	r_elb_m	r_low	r_wri_l	r_wri_m	r_met	l_upa	l_elb_l	l_elb_m	l_low	l_wri_l	l_wri_m	l_met
	X1	Y1	Z1	X2	Y2	Z2	X3	Y3	Z3	X4	Y4	Z4	X5	Y5	Z5	X6	Y6	Z6	X7	Y7	Z7	X8	Y8	Z8	X9	Y9	Z9	X10	Y10	Z10	X11	Y11	Z11	X12	Y12	Z12	X13	Y13	Z13	X14	Y14	Z14	X15	Y15	Z15	X16	Y16	Z16	X17	Y17	Z17	X18	Y18	Z18
4199	16.79200	883.12311	1418.60815	140.15927	973.60693	1337.82825	304.90933	915.80261	1368.12207	-63.40943	1019.23547	1300.85767	104.20187	961.04242	1130.30615	351.17279	973.63348	1076.21484	354.32803	937.36194	1020.72766	271.24747	1069.36255	1032.18250	298.59164	1144.94067	1109.42200	298.76398	1131.73352	1086.07031	226.55843	1226.91528	1106.38049	296.01730	917.83478	1143.73474	-105.10044	928.16895	1057.84363	-118.02338	868.68524	1033.13562	-35.37748	880.25916	916.18195	-128.08942	953.93829	823.09503	-109.43179	882.85657	814.48315	-128.67024	969.21411	745.90759	-130.70004
4200	16.79600	883.25580	1418.63416	140.25082	973.80139	1337.78528	304.95908	915.84875	1368.15576	-63.34479	1019.31812	1300.83777	104.23108	960.83984	1130.24988	351.26117	973.29865	1076.30347	354.69150	936.85315	1020.70929	271.40274	1069.01355	1031.11707	298.75989	1145.21887	1107.66565	298.85226	1131.80090	1084.43457	226.71700	1227.00415	1103.71008	296.04306	917.78217	1143.76831	-105.05499	928.08118	1057.86816	-117.99003	868.59930	1033.18530	-35.33228	880.12183	916.23181	-128.05972	953.75714	823.10864	-109.42520	882.66760	814.54230	-128.65506	969.00269	745.90924	-130.67567
4201	16.80000	883.38940	1418.66040	140.33929	973.99200	1337.75073	305.00626	915.89435	1368.18701	-63.27455	1019.40015	1300.82837	104.24400	960.64331	1130.20459	351.33469	973.08673	1076.11328	354.83380	936.38013	1020.70245	271.56131	1068.65100	1030.04773	298.90817	1145.48120	1105.92017	298.92804	1131.96252	1082.65344	226.85551	1227.27734	1101.12231	296.09235	917.73749	1143.80383	-105.01321	927.99255	1057.89343	-117.95539	868.51373	1033.23291	-35.27811	879.98212	916.28082	-128.02927	953.58807	823.13025	-109.41187	882.48468	814.59454	-128.63977	968.79852	745.92896	-130.67699
4202	16.80400	883.52679	1418.69421	140.42139	974.19067	1337.70825	305.05411	915.93939	1368.21838	-63.19737	1019.48920	1300.82361	104.26134	960.44769	1130.15918	351.39142	972.85370	1075.83118	354.90518	935.98230	1020.65125	271.68829	1068.29639	1028.97339	299.03763	1145.72925	1104.15955	299.00436	1131.89795	1081.21484	226.98515	1227.62659	1098.58704	296.23975	917.69769	1143.84119	-104.96888	927.90887	1057.93018	-117.92477	868.42706	1033.28418	-35.23394	879.84235	916.32660	-127.99889	953.41846	823.15875	-109.40319	882.30615	814.64551	-128.62091	968.59973	745.95129	-130.67050
4203	16.80800	883.66809	1418.71423	140.51180	974.40564	1337.65918	305.10254	915.98450	1368.25281	-63.12539	1019.57513	1300.82019	104.28549	960.25073	1130.11255	351.46222	972.61499	1075.49939	354.96323	935.59857	1020.62561	271.79773	1067.97266	1027.91699	299.17078	1145.99463	1102.39404	299.09634	1131.66650	1080.32544	226.96640	1227.98914	1096.05945	296.54663	917.66602	1143.87781	-104.92285	927.83655	1057.97070	-117.88905	868.35364	1033.33875	-35.19577	879.70209	916.37543	-127.96616	953.23413	823.16675	-109.38979	882.13062	814.68982	-128.59482	968.40344	745.97345	-130.67282
4204	16.81200	883.80328	1418.74158	140.60370	974.62512	1337.60425	305.14941	916.03723	1368.28918	-63.05663	1019.65784	1300.81177	104.30298	960.04407	1130.07397	351.53918	972.40356	1075.14026	355.03943	935.17163	1020.60150	271.94101	1067.61938	1026.82959	299.30591	1146.26135	1100.61584	299.19327	1131.65710	1078.88989	226.99686	1228.30981	1093.47607	296.60873	917.64331	1143.91040	-104.87473	927.76318	1058.00793	-117.85151	868.28583	1033.38818	-35.15355	879.56293	916.42352	-127.93577	953.07367	823.18945	-109.37711	881.95648	814.73431	-128.57358	968.19958	745.98761	-130.66039
4205	16.81600	883.93628	1418.77161	140.68938	974.84479	1337.54919	305.19208	916.08331	1368.31567	-62.97554	1019.75177	1300.79663	104.33150	959.82581	1130.03088	351.61658	972.19824	1074.77954	355.13062	934.67889	1020.57745	272.08731	1067.25806	1025.72473	299.45084	1146.51343	1098.81555	299.28290	1131.74841	1077.28516	227.05519	1228.58472	1090.84509	296.60965	917.61737	1143.94116	-104.82304	927.69196	1058.03552	-117.80941	868.22644	1033.42883	-35.10477	879.42328	916.47229	-127.90617	952.90314	823.20306	-109.36467	881.78723	814.77789	-128.55103	967.99701	745.99414	-130.65222
4206	16.82000	884.06964	1418.79419	140.76395	975.07227	1337.48865	305.24640	916.12952	1368.34143	-62.90187	1019.84283	1300.78992	104.35777	959.61877	1129.97046	351.69592	971.99530	1074.44373	355.22363	934.14020	1020.57983	272.24625	1066.89880	1024.62292	299.58188	1146.77075	1097.00134	299.36703	1131.88293	1075.64929	227.13077	1228.88464	1088.20508	296.59970	917.59888	1143.96680	-104.76900	927.62213	1058.05750	-117.76623	868.17059	1033.47046	-35.06194	879.28900	916.51978	-127.87280	952.73090	823.21594	-109.35761	881.61548	814.82513	-128.52818	967.79675	745.99725	-130.64915
4207	16.82400	884.20782	1418.81799	140.83835	975.29694	1337.42761	305.29663	916.17462	1368.36841	-62.83463	1019.93610	1300.77673	104.39094	959.42242	1129.92786	351.78952	971.79999	1074.12512	355.30505	933.63702	1020.57495	272.39783	1066.55481	1023.51215	299.71249	1147.03625	1095.16125	299.45425	1132.01306	1073.98376	227.20308	1229.23877	1085.61646	296.61942	917.58826	1143.98975	-104.71532	927.55530	1058.08533	-117.73277	868.11407	1033.51050	-35.01522	879.16107	916.56177	-127.83682	952.54657	823.21948	-109.35536	881.43542	814.87231	-128.49409	967.59949	746.00183	-130.65042
4208	16.82800	884.34930	1418.84448	140.91928	975.51599	1337.37439	305.33981	916.22540	1368.38989	-62.77029	1020.03503	1300.75952	104.41802	959.23193	1129.89148	351.87286	971.62311	1073.81445	355.38696	933.22034	1020.54980	272.53732	1066.19617	1022.39075	299.84583	1147.28418	1093.32898	299.54462	1132.14197	1072.26465	227.29788	1229.61023	1083.05518	296.69308	917.57544	1144.01416	-104.66215	927.49335	1058.12158	-117.69762	868.06586	1033.54504	-34.96370	879.03809	916.60120	-127.79874	952.37317	823.22821	-109.35203	881.24762	814.91046	-128.46199	967.40607	746.00769	-130.65971
